<svg width="178" height="35" viewBox="0 0 178 35" fill="none" xmlns="http://www.w3.org/2000/svg">
<line x1="112" y1="16.8821" x2="178" y2="16.8821" stroke="#0063A8"/>
<line y1="16.8821" x2="66" y2="16.8821" stroke="#0063A8"/>
<circle cx="89" cy="17.3821" r="16" stroke="#0063A8" stroke-width="2.76396" stroke-dasharray="0.98 8.39"/>
<mask id="path-4-inside-1_4492_585" fill="white">
<path fill-rule="evenodd" clip-rule="evenodd" d="M88.0139 6.19437L81.1081 19.3492C80.7586 20.015 81.2415 20.814 81.9935 20.814H85.6765L85.4965 27.3271C85.438 29.4453 88.2817 30.1882 89.2666 28.312L96.1724 15.1572C96.5219 14.4913 96.039 13.6924 95.287 13.6924H91.604L91.784 7.17923C91.8425 5.06106 88.9988 4.3182 88.0139 6.19437Z"/>
</mask>
<path fill-rule="evenodd" clip-rule="evenodd" d="M88.0139 6.19437L81.1081 19.3492C80.7586 20.015 81.2415 20.814 81.9935 20.814H85.6765L85.4965 27.3271C85.438 29.4453 88.2817 30.1882 89.2666 28.312L96.1724 15.1572C96.5219 14.4913 96.039 13.6924 95.287 13.6924H91.604L91.784 7.17923C91.8425 5.06106 88.9988 4.3182 88.0139 6.19437Z" fill="#FFDF4E"/>
<path d="M81.1081 19.3492L82.337 19.9943L81.1081 19.3492ZM88.0139 6.19437L89.2427 6.83946V6.83946L88.0139 6.19437ZM85.6765 20.814L87.0638 20.8523L87.1032 19.4261H85.6765V20.814ZM85.4965 27.3271L84.1092 27.2888L85.4965 27.3271ZM89.2666 28.312L88.0378 27.6669L89.2666 28.312ZM96.1724 15.1572L97.4012 15.8023L96.1724 15.1572ZM91.604 13.6924L90.2167 13.6541L90.1773 15.0802H91.604V13.6924ZM91.784 7.17923L93.1713 7.21756L91.784 7.17923ZM82.337 19.9943L89.2427 6.83946L86.7851 5.54928L79.8793 18.7041L82.337 19.9943ZM81.9935 19.4261C82.2852 19.4261 82.4725 19.736 82.337 19.9943L79.8793 18.7041C79.0446 20.2941 80.1978 22.2018 81.9935 22.2018V19.4261ZM85.6765 19.4261H81.9935V22.2018H85.6765V19.4261ZM86.8839 27.3655L87.0638 20.8523L84.2892 20.7757L84.1092 27.2888L86.8839 27.3655ZM88.0378 27.6669C87.7363 28.2411 86.8659 28.0138 86.8839 27.3655L84.1092 27.2888C84.0101 30.8768 88.827 32.1352 90.4954 28.9571L88.0378 27.6669ZM94.9435 14.5121L88.0378 27.6669L90.4954 28.9571L97.4012 15.8023L94.9435 14.5121ZM95.287 15.0802C94.9953 15.0802 94.808 14.7704 94.9435 14.5121L97.4012 15.8023C98.2359 14.2123 97.0827 12.3045 95.287 12.3045V15.0802ZM91.604 15.0802H95.287V12.3045H91.604V15.0802ZM90.3966 7.1409L90.2167 13.6541L92.9913 13.7307L93.1713 7.21756L90.3966 7.1409ZM89.2427 6.83946C89.5442 6.26523 90.4146 6.49257 90.3966 7.1409L93.1713 7.21756C93.2704 3.62955 88.4535 2.37118 86.7851 5.54928L89.2427 6.83946Z" fill="#0063A8" mask="url(#path-4-inside-1_4492_585)"/>
</svg>
